<svg width="7242" height="1836" viewBox="0 0 7242 1836" fill="none" xmlns="http://www.w3.org/2000/svg">
<g clip-path="url(#clip0_161_3)">
<rect width="7242" height="1836" fill="white"/>
<g opacity="0.3" filter="url(#filter0_f_161_3)">
<path d="M682.194 1305.35C5.50589 1330.63 208.372 679.494 -170.1 977.53C-548.573 1275.57 -504.996 1490.04 -126.243 1971.02C252.51 2451.99 865.486 2564.14 1243.96 2266.1C1622.43 1968.07 2474.49 1238.37 682.194 1305.35Z" fill="url(#paint0_linear_161_3)" fill-opacity="0.9"/>
</g>
<g opacity="0.3" filter="url(#filter1_f_161_3)">
<path d="M1658.73 919.434C1512.09 1253.09 1458.28 1994.79 2107.23 2280.01C2756.18 2565.22 5477.07 2373.66 5623.71 2040C5770.35 1706.34 5363.15 1204.65 4714.2 919.434C4065.24 634.219 1805.37 585.776 1658.73 919.434Z" fill="#B8B1FF"/>
</g>
<g opacity="0.9" filter="url(#filter2_f_161_3)">
<ellipse cx="673.438" cy="659.914" rx="673.438" ry="659.914" transform="matrix(-0.915484 -0.402355 -0.402355 0.915484 2796.21 1718.92)" fill="#B8B1FF"/>
</g>
<g opacity="0.7" filter="url(#filter3_f_161_3)">
<path d="M878.354 -608.091C458.389 -13.8835 553.208 775.448 1090.14 1154.93C1627.07 1534.41 1804.6 937.571 2224.57 343.363C2644.53 -250.845 3147.89 -617.405 2610.96 -996.887C2074.03 -1376.37 1298.32 -1202.3 878.354 -608.091Z" fill="url(#paint1_linear_161_3)"/>
</g>
<g opacity="0.3" filter="url(#filter4_f_161_3)">
<path d="M827.018 1312.5C1292.07 1524.38 1068.79 1981.77 1509.1 1846.16C1830.52 1747.16 1847.25 1567.95 1693.9 1070.03C1540.54 572.104 1148.44 276.707 827.019 375.702C505.593 474.697 -404.745 751.314 827.018 1312.5Z" fill="#07C2C2" fill-opacity="0.8"/>
</g>
<g opacity="0.3" filter="url(#filter5_f_161_3)">
<path d="M825.291 1236.35C1302.24 1311.34 1152.48 1761.92 1556.41 1540.33C1851.27 1378.56 1841.95 1218.66 1624.02 821.408C1406.08 424.152 987.403 259.312 692.537 421.078C397.671 582.844 -437.979 1037.73 825.291 1236.35Z" fill="url(#paint2_linear_161_3)" fill-opacity="0.8"/>
</g>
<g opacity="0.6" filter="url(#filter6_f_161_3)">
<path d="M929.751 1027.91C1499.79 1671.53 1883.8 1032.7 929.797 438.83C882.512 409.394 606.043 575.992 567.397 628.673C528.752 681.355 527.229 837.8 550.043 854.536C560.374 874.611 858.39 947.335 929.751 1027.91Z" fill="white"/>
</g>
<g opacity="0.6" filter="url(#filter7_f_161_3)">
<path d="M1827.75 262.679C2624.96 80.4489 2312.99 -239.468 1663.3 -254.764C1592.64 -256.428 1372.89 -74.8803 1358.92 -22.8568C1344.94 29.1666 1432.35 161.109 1467.86 170.647C1491.06 185.482 1703.17 291.157 1827.75 262.679Z" fill="white"/>
</g>
<g opacity="0.6" filter="url(#filter8_f_161_3)">
<path d="M5976.35 -258.127C5849.46 -267.666 4861.25 583.142 5619.86 274.526C5634.11 291.336 5607.79 210.809 5672.11 156.298C5736.43 101.788 5833.81 50.8872 5819.56 34.0772C5819.31 13.6666 6076.31 -250.613 5976.35 -258.127Z" fill="url(#paint3_linear_161_3)"/>
</g>
<g opacity="0.6" filter="url(#filter9_f_161_3)">
<path d="M2103.12 2033.9C2638.43 1937.53 2421.6 1736.21 1982.27 1714.68C1934.49 1712.33 1789.4 1819.13 1780.93 1850.65C1772.46 1882.17 1834.01 1964.43 1858.18 1970.92C1874.14 1980.42 2019.46 2048.96 2103.12 2033.9Z" fill="white"/>
</g>
<g opacity="0.4" filter="url(#filter10_f_161_3)">
<path d="M6140.01 1019.79C4835.52 1109.64 5266.46 -137.199 4519.27 451.189C3772.09 1039.58 3842.71 1443.43 4542.18 2331.69C5241.65 3219.94 6414.96 3394.55 7162.14 2806.16C7909.33 2217.78 9595.13 781.809 6140.01 1019.79Z" fill="url(#paint4_linear_161_3)"/>
</g>
<g opacity="0.4" filter="url(#filter11_f_161_3)">
<path d="M3276.03 920.787C4486.46 1048.25 4083.65 1559.84 5373.48 1162.59C6315.06 872.592 6438.53 589.365 6222.49 -112.083C6006.45 -813.531 5035.85 -1100.86 4094.27 -810.864C3152.69 -520.867 70.042 583.194 3276.03 920.787Z" fill="#56DFD1" fill-opacity="0.9"/>
</g>
<path d="M1606.65 765.986C1585.27 757.874 1558.47 764.785 1539.26 777.833C1529.88 784.2 1524.55 794.143 1519.68 805.067C1514.86 815.872 1510.47 827.722 1502.94 837.114C1496.77 844.799 1488.76 850.579 1481.14 856.318C1473.45 862.104 1466.13 867.865 1460.91 875.605C1449.55 892.418 1443.46 911.922 1438.82 931.896C1437.48 937.684 1435.52 943.728 1433.58 949.77C1431.64 955.836 1429.7 961.91 1428.34 967.86C1425.62 979.793 1425.31 990.867 1431.6 1000C1438.43 1009.93 1450.26 1012.71 1463.7 1014.58C1470.32 1015.51 1477.35 1016.22 1484.01 1017.53C1490.7 1018.85 1497.2 1020.8 1502.85 1024.29C1511.61 1029.69 1517.09 1038.87 1522.46 1047.34C1527.92 1055.96 1533.29 1063.88 1541.78 1067.83C1559.28 1075.95 1580.42 1074.26 1599.55 1069.54C1608.45 1067.33 1616.12 1062.45 1623.81 1056.97C1631.43 1051.54 1639.12 1045.48 1647.82 1041.31C1652.53 1039.05 1657.7 1037.59 1662.92 1036.42C1665.53 1035.83 1668.18 1035.3 1670.79 1034.79C1673.42 1034.27 1676.01 1033.76 1678.54 1033.19C1688.74 1030.9 1697.67 1027.73 1703.21 1019.99C1708.71 1012.3 1707.56 1002.54 1705.75 991.761C1704.87 986.471 1703.84 980.961 1703.55 975.619C1703.26 970.258 1703.71 964.933 1705.86 959.975C1711.32 947.415 1722.96 938.46 1733.38 929.638C1743.98 920.678 1753.36 911.849 1755.61 899.4C1759.86 875.949 1748.51 848.027 1729.57 833.445C1719.8 825.919 1707.03 826.044 1693.33 826.67C1679.87 827.285 1665.49 828.395 1653.67 821.908C1642.38 815.71 1636.15 803.421 1630.01 792.135C1623.75 780.626 1617.59 770.139 1606.65 765.986Z" stroke="url(#paint5_linear_161_3)" stroke-width="3"/>
<path d="M1614.28 690.732C1582.2 678.555 1542.11 688.944 1513.43 708.431C1499.31 718.026 1491.32 732.985 1484.07 749.241C1476.88 765.377 1470.41 782.872 1459.28 796.744C1450.19 808.086 1438.37 816.624 1427.01 825.179C1415.59 833.78 1404.62 842.413 1396.77 854.039C1379.82 879.156 1370.74 908.269 1363.84 938.001C1361.85 946.575 1358.95 955.532 1356.07 964.525C1353.17 973.544 1350.28 982.607 1348.26 991.493C1344.2 1009.3 1343.69 1026.03 1353.21 1039.88C1363.56 1054.93 1381.47 1059.08 1401.42 1061.87C1411.3 1063.25 1421.7 1064.3 1431.58 1066.25C1441.49 1068.2 1451.04 1071.08 1459.34 1076.2C1472.19 1084.13 1480.24 1097.61 1488.26 1110.26C1496.36 1123.05 1504.44 1135.02 1517.29 1141C1543.53 1153.18 1575.16 1150.62 1603.64 1143.58C1617.01 1140.27 1628.51 1132.94 1639.95 1124.78C1651.32 1116.68 1662.68 1107.72 1675.53 1101.55C1682.46 1098.23 1690.08 1096.07 1697.83 1094.33C1701.7 1093.45 1705.62 1092.68 1709.51 1091.91C1713.41 1091.14 1717.27 1090.38 1721.05 1089.53C1736.23 1086.12 1749.74 1081.36 1758.14 1069.62C1766.53 1057.89 1764.74 1043.06 1762.06 1027.08C1760.74 1019.19 1759.21 1011.05 1758.79 1003.16C1758.36 995.243 1759.03 987.45 1762.17 980.219C1770.2 961.734 1787.32 948.538 1802.88 935.367C1818.6 922.059 1832.76 908.772 1836.17 889.967C1842.53 854.806 1825.54 813.01 1797.18 791.165C1782.41 779.784 1763.16 780.009 1742.84 780.938C1722.76 781.857 1701.62 783.473 1684.27 773.946C1667.71 764.853 1658.55 746.807 1649.39 729.956C1640.11 712.882 1630.84 697.02 1614.28 690.732Z" stroke="url(#paint6_linear_161_3)" stroke-width="3"/>
<path d="M1623.13 604.753C1578.63 587.872 1523.13 602.285 1483.46 629.22C1463.84 642.55 1452.75 663.314 1442.75 685.737C1432.8 708.04 1423.91 732.065 1408.62 751.121C1396.13 766.694 1379.89 778.422 1364.2 790.233C1348.44 802.091 1333.23 814.047 1322.34 830.168C1298.89 864.893 1286.35 905.121 1276.82 946.143C1274.08 957.939 1270.09 970.267 1266.1 982.675C1262.11 995.108 1258.12 1007.63 1255.32 1019.91C1249.71 1044.51 1248.96 1067.78 1262.24 1087.08C1276.68 1108.06 1301.64 1113.81 1329.15 1117.65C1342.81 1119.56 1357.12 1121 1370.73 1123.68C1384.37 1126.37 1397.48 1130.32 1408.85 1137.33C1426.44 1148.18 1437.48 1166.64 1448.57 1184.12C1459.74 1201.75 1470.95 1218.4 1488.87 1226.72C1525.24 1243.61 1569.05 1240.04 1608.38 1230.32C1626.95 1225.73 1642.89 1215.56 1658.68 1204.31C1674.4 1193.11 1690.02 1180.8 1707.69 1172.33C1717.2 1167.77 1727.67 1164.81 1738.33 1162.4C1743.67 1161.2 1749.08 1160.13 1754.44 1159.07C1759.82 1158.01 1765.15 1156.96 1770.38 1155.78C1791.33 1151.07 1810.17 1144.48 1821.9 1128.1C1833.63 1111.71 1831.09 1091.01 1827.4 1069.02C1825.57 1058.12 1823.47 1046.93 1822.89 1036.09C1822.31 1025.23 1823.23 1014.58 1827.51 1004.72C1838.52 979.377 1862.01 961.274 1883.53 943.072C1905.21 924.733 1924.91 906.291 1929.65 880.133C1938.48 831.426 1914.94 773.581 1875.65 743.333C1855.08 727.492 1828.29 727.831 1800.29 729.111C1772.52 730.38 1743.55 732.583 1719.78 719.539C1697.11 707.097 1684.54 682.393 1671.87 659.104C1659.09 635.591 1646.21 613.509 1623.13 604.753Z" stroke="url(#paint7_linear_161_3)" stroke-width="3"/>
<path d="M1632.75 505.07C1574.05 482.795 1500.91 501.822 1448.69 537.3C1422.76 554.913 1408.14 582.335 1394.99 611.831C1381.89 641.207 1370.24 672.721 1350.19 697.722C1333.81 718.147 1312.51 733.536 1291.86 749.082C1271.15 764.675 1251.08 780.441 1236.72 801.717C1205.84 847.46 1189.33 900.438 1176.8 954.407C1173.2 969.899 1167.96 986.093 1162.72 1002.42C1157.48 1018.77 1152.22 1035.25 1148.53 1051.43C1141.15 1083.82 1140.13 1114.59 1157.71 1140.15C1176.82 1167.93 1209.84 1175.5 1246 1180.55C1263.99 1183.06 1282.77 1184.96 1300.65 1188.48C1318.55 1192.01 1335.73 1197.19 1350.61 1206.37C1373.62 1220.57 1388.08 1244.74 1402.67 1267.76C1417.35 1290.92 1432.17 1312.96 1455.86 1323.96C1503.84 1346.24 1561.56 1341.53 1613.31 1328.73C1637.82 1322.67 1658.84 1309.24 1679.6 1294.45C1700.29 1279.7 1720.78 1263.54 1743.97 1252.42C1756.42 1246.45 1770.15 1242.56 1784.16 1239.4C1791.17 1237.82 1798.27 1236.42 1805.33 1235.02C1812.39 1233.63 1819.41 1232.24 1826.29 1230.7C1853.85 1224.5 1878.78 1215.8 1894.31 1194.1C1909.86 1172.37 1906.47 1144.94 1901.62 1116.04C1899.21 1101.7 1896.47 1087.02 1895.7 1072.79C1894.93 1058.54 1896.15 1044.62 1901.74 1031.74C1916.16 998.537 1946.94 974.809 1975.26 950.837C2003.76 926.728 2029.8 902.374 2036.06 867.781C2047.7 803.539 2016.67 727.285 1964.89 687.399C1937.68 666.444 1902.28 666.916 1865.49 668.598C1828.94 670.269 1791 673.145 1759.89 656.066C1730.23 639.784 1713.76 607.443 1697.09 576.769C1680.29 545.871 1663.29 516.659 1632.75 505.07Z" stroke="url(#paint8_linear_161_3)" stroke-width="3"/>
<path d="M1645.84 377.061C1568.78 347.822 1472.84 372.807 1404.37 419.311C1370.3 442.451 1351.11 478.466 1333.89 517.091C1316.72 555.595 1301.48 596.774 1275.27 629.448C1253.87 656.137 1226.03 676.248 1198.98 696.614C1171.86 717.028 1145.52 737.712 1126.66 765.643C1086.17 825.607 1064.54 895.038 1048.12 965.718C1043.41 985.979 1036.56 1007.16 1029.7 1028.54C1022.83 1049.95 1015.94 1071.55 1011.1 1092.76C1001.42 1135.19 1000.05 1175.66 1023.19 1209.28C1048.35 1245.84 1091.79 1255.77 1139.14 1262.38C1162.71 1265.68 1187.27 1268.15 1210.67 1272.76C1234.09 1277.37 1256.52 1284.15 1275.94 1296.12C1305.97 1314.65 1324.86 1346.18 1343.98 1376.35C1363.2 1406.67 1382.66 1435.64 1413.83 1450.11C1476.8 1479.35 1552.52 1473.15 1620.33 1456.38C1652.52 1448.43 1680.11 1430.8 1707.3 1411.42C1734.42 1392.1 1761.2 1370.98 1791.52 1356.44C1807.78 1348.64 1825.72 1343.57 1844.06 1339.43C1853.23 1337.36 1862.53 1335.52 1871.77 1333.7C1881.01 1331.87 1890.21 1330.05 1899.23 1328.03C1935.34 1319.92 1968.13 1308.49 1988.58 1279.93C2009.08 1251.3 2004.58 1215.18 1998.24 1177.38C1995.09 1158.58 1991.49 1139.39 1990.49 1120.8C1989.49 1102.18 1991.08 1084.03 1998.36 1067.26C2017.2 1023.91 2057.39 992.923 2094.52 961.504C2131.82 929.948 2166.06 897.962 2174.3 852.484C2189.57 768.192 2148.86 668.181 2080.92 615.856C2045.13 588.3 1998.6 588.942 1950.44 591.143C1902.53 593.332 1853 597.075 1812.4 574.791C1773.7 553.551 1752.2 511.355 1730.34 471.15C1708.36 430.723 1686.02 392.304 1645.84 377.061Z" stroke="url(#paint9_linear_161_3)" stroke-width="3"/>
<path d="M1661.18 232.45C1563.31 195.32 1441.53 227.057 1354.66 286.059C1311.36 315.466 1286.99 361.221 1265.15 410.194C1243.37 459.047 1224.08 511.182 1190.89 552.554C1163.79 586.342 1128.54 611.807 1094.23 637.639C1059.85 663.517 1026.4 689.777 1002.45 725.25C951.074 801.336 923.634 889.418 902.812 979.04C896.848 1004.71 888.171 1031.55 879.468 1058.66C870.757 1085.79 862.017 1113.2 855.88 1140.1C843.599 1193.94 841.829 1245.38 871.265 1288.15C903.275 1334.66 958.529 1347.26 1018.55 1355.64C1048.46 1359.82 1079.57 1362.95 1109.22 1368.79C1138.9 1374.64 1167.28 1383.21 1191.84 1398.37C1229.82 1421.79 1253.71 1461.67 1277.97 1499.95C1302.33 1538.37 1327.06 1575.21 1366.7 1593.62C1446.67 1630.75 1542.78 1622.85 1628.78 1601.59C1669.67 1591.49 1704.7 1569.1 1739.18 1544.53C1773.59 1520.01 1807.51 1493.27 1845.91 1474.85C1866.49 1464.98 1889.19 1458.56 1912.43 1453.32C1924.06 1450.69 1935.83 1448.37 1947.55 1446.05C1959.27 1443.73 1970.94 1441.43 1982.38 1438.87C2028.17 1428.58 2069.89 1414.07 2095.9 1377.73C2122 1341.27 2116.25 1295.31 2108.22 1247.41C2104.22 1223.57 2099.67 1199.27 2098.4 1175.72C2097.13 1152.16 2099.14 1129.21 2108.35 1108.03C2132.18 1053.18 2183.04 1013.96 2230.16 974.095C2277.43 934.098 2320.96 893.461 2331.44 835.645C2350.82 728.623 2299.15 601.68 2212.89 535.255C2167.38 500.215 2108.24 501.05 2047.2 503.839C1986.41 506.617 1923.75 511.345 1872.39 483.158C1823.46 456.299 1796.25 402.93 1768.52 351.922C1740.66 300.691 1712.27 251.837 1661.18 232.45Z" stroke="url(#paint10_linear_161_3)" stroke-width="3"/>
<path d="M1674.36 103.464C1558 59.3178 1413.25 97.0561 1310.02 167.168C1258.52 202.145 1229.55 256.559 1203.61 314.73C1177.72 372.782 1154.83 434.656 1115.44 483.759C1083.27 523.858 1041.44 554.083 1000.67 584.771C959.846 615.507 920.072 646.723 891.593 688.9C830.543 779.316 797.941 883.978 773.206 990.438C766.126 1020.91 755.823 1052.78 745.484 1084.98C735.138 1117.21 724.754 1149.77 717.461 1181.74C702.869 1245.71 700.744 1306.91 735.776 1357.81C773.876 1413.17 839.63 1428.15 910.911 1438.1C946.452 1443.06 983.389 1446.78 1018.59 1453.71C1053.83 1460.65 1087.5 1470.83 1116.64 1488.8C1161.69 1516.59 1190.03 1563.88 1218.86 1609.37C1247.78 1655 1277.2 1698.83 1324.37 1720.73C1419.44 1764.87 1533.68 1755.48 1635.85 1730.22C1684.47 1718.2 1726.12 1691.58 1767.08 1662.4C1807.97 1633.26 1848.23 1601.53 1893.81 1579.67C1918.22 1567.96 1945.17 1560.33 1972.76 1554.11C1986.57 1550.99 2000.55 1548.23 2014.47 1545.48C2028.39 1542.73 2042.25 1539.99 2055.84 1536.94C2110.25 1524.72 2159.89 1507.47 2190.85 1464.21C2221.94 1420.8 2215.07 1366.09 2205.53 1309.22C2200.78 1280.89 2195.38 1252.05 2193.87 1224.1C2192.37 1196.13 2194.76 1168.93 2205.67 1143.82C2233.94 1078.75 2294.29 1032.21 2350.27 984.843C2406.42 937.342 2458.21 889.015 2470.67 820.23C2493.71 693.006 2432.29 542.124 2329.75 463.165C2275.61 421.474 2205.25 422.48 2132.77 425.792C2060.53 429.093 1986.19 434.695 1925.28 401.263C1867.24 369.409 1834.96 306.108 1802 245.496C1768.93 184.662 1735.17 126.534 1674.36 103.464Z" stroke="url(#paint11_linear_161_3)" stroke-width="3"/>
<path d="M1689.24 -42.1348C1552.01 -94.1998 1381.34 -49.6866 1259.65 32.9658C1198.89 74.2306 1164.73 138.417 1134.15 206.973C1103.63 275.407 1076.68 348.273 1030.29 406.104C992.409 453.326 943.138 488.923 895.091 525.095C846.981 561.314 800.075 598.124 766.486 647.869C694.515 754.46 656.087 877.837 626.937 1003.3C618.596 1039.2 606.458 1076.75 594.274 1114.7C582.082 1152.67 569.841 1191.06 561.244 1228.75C544.043 1304.15 541.521 1376.37 582.869 1436.45C627.84 1501.79 705.444 1519.44 789.437 1531.17C831.333 1537.02 874.841 1541.4 916.319 1549.57C957.826 1557.74 997.474 1569.73 1031.77 1590.89C1084.79 1623.59 1118.16 1679.26 1152.14 1732.88C1186.22 1786.65 1220.92 1838.37 1276.59 1864.21C1388.72 1916.27 1523.41 1905.18 1643.83 1875.42C1701.18 1861.24 1750.29 1829.84 1798.56 1795.45C1846.76 1761.1 1894.18 1723.72 1947.86 1697.98C1976.6 1684.19 2008.34 1675.21 2040.85 1667.88C2057.11 1664.21 2073.59 1660.95 2089.99 1657.71C2106.4 1654.47 2122.74 1651.25 2138.75 1647.65C2202.87 1633.24 2261.46 1612.9 2298.01 1561.84C2334.72 1510.57 2326.6 1445.98 2315.36 1378.99C2309.76 1345.59 2303.39 1311.62 2301.62 1278.71C2299.85 1245.77 2302.67 1213.76 2315.5 1184.23C2348.79 1107.61 2419.84 1052.81 2485.83 996.975C2552 941.004 2613.1 883.997 2627.8 802.832C2654.98 652.802 2582.55 474.897 2461.64 381.791C2397.75 332.591 2314.73 333.792 2229.33 337.694C2144.18 341.586 2056.67 348.174 1984.96 308.819C1916.65 271.327 1878.65 196.817 1839.8 125.365C1800.83 53.6908 1761 -14.9076 1689.24 -42.1348Z" stroke="url(#paint12_linear_161_3)" stroke-width="3"/>
<path d="M1716.1 -309.891C1540.5 -376.492 1322.17 -319.544 1166.53 -213.872C1088.75 -161.066 1045.04 -78.9394 1005.95 8.6748C966.917 96.1684 932.485 189.214 873.227 263.063C824.842 323.362 761.903 368.818 700.466 415.055C638.966 461.338 578.948 508.417 535.965 572.054C443.914 708.335 394.775 866.064 357.506 1026.42C346.848 1072.28 331.337 1120.24 315.76 1168.74C300.175 1217.27 284.519 1266.34 273.524 1314.52C251.528 1410.91 248.271 1503.36 301.232 1580.28C358.838 1663.95 458.228 1686.53 565.593 1701.51C619.175 1708.99 674.765 1714.59 727.775 1725.02C780.814 1735.46 831.445 1750.77 875.227 1777.77C942.907 1819.5 985.511 1890.55 1028.97 1959.1C1072.53 2027.8 1116.95 2094 1188.25 2127.09C1331.72 2193.68 1504.03 2179.48 1657.99 2141.43C1731.39 2123.3 1794.24 2083.13 1855.95 2039.17C1917.59 1995.27 1978.16 1947.53 2046.75 1914.64C2083.45 1897.05 2123.98 1885.58 2165.54 1876.21C2186.32 1871.52 2207.38 1867.36 2228.35 1863.22C2249.32 1859.08 2270.21 1854.96 2290.7 1850.36C2372.68 1831.95 2447.71 1805.92 2494.54 1740.54C2541.58 1674.86 2531.15 1592.14 2516.79 1506.55C2509.62 1463.85 2501.49 1420.47 2499.23 1378.44C2496.97 1336.39 2500.57 1295.55 2516.93 1257.89C2559.44 1160.09 2650.17 1090.12 2734.58 1018.74C2819.15 947.225 2897.38 874.286 2916.21 770.396C2950.98 578.504 2858.32 350.998 2703.63 231.923C2621.82 168.941 2515.53 170.497 2406.38 175.483C2297.48 180.459 2185.74 188.858 2094.2 138.634C2007 90.7922 1958.48 -4.2952 1908.79 -95.6445C1858.98 -187.216 1808.01 -275.032 1716.1 -309.891Z" stroke="url(#paint13_linear_161_3)" stroke-width="3"/>
<path d="M1735.67 -495.542C1533.32 -572.268 1281.77 -506.657 1102.46 -384.952C1012.82 -324.108 962.452 -229.486 917.432 -128.597C872.465 -27.8279 832.821 79.2719 764.591 164.279C708.883 233.686 636.417 286.011 565.646 339.258C494.813 392.551 425.655 446.782 376.123 520.095C270.075 677.057 213.469 858.713 170.54 1043.37C158.267 1096.16 140.404 1151.38 122.462 1207.23C104.511 1263.11 86.477 1319.63 73.8105 1375.12C48.4707 1486.13 44.703 1592.66 105.76 1681.32C172.172 1777.76 286.749 1803.76 410.405 1821.01C472.134 1829.62 536.145 1836.06 597.194 1848.08C658.272 1860.09 716.558 1877.72 766.953 1908.78C844.853 1956.8 893.896 2038.57 943.967 2117.52C994.13 2196.61 1045.33 2272.9 1127.51 2311.04C1292.83 2387.75 1491.36 2371.38 1668.72 2327.57C1753.3 2306.68 1825.72 2260.4 1896.8 2209.78C1967.81 2159.21 2037.55 2104.26 2116.53 2066.41C2158.78 2046.16 2205.44 2032.95 2253.3 2022.17C2277.24 2016.77 2301.48 2011.98 2325.64 2007.21C2349.8 2002.44 2373.86 1997.7 2397.46 1992.4C2491.89 1971.2 2578.39 1941.21 2632.38 1865.85C2686.62 1790.14 2674.58 1694.78 2658.04 1596.25C2649.79 1547.08 2640.43 1497.14 2637.83 1448.76C2635.22 1400.35 2639.37 1353.36 2658.2 1310.04C2707.13 1197.49 2811.58 1116.96 2908.82 1034.75C3006.22 952.407 3096.4 868.371 3118.1 748.651C3158.16 527.603 3051.4 265.548 2873.17 128.384C2778.86 55.8027 2656.35 57.6057 2530.65 63.3467C2405.19 69.0766 2276.56 78.7385 2171.19 20.9434C2070.83 -34.1068 2014.98 -143.527 1957.73 -248.735C1900.37 -354.167 1841.62 -455.369 1735.67 -495.542Z" stroke="url(#paint14_linear_161_3)" stroke-width="3"/>
<path d="M1766.27 -834.625C1521 -929.782 1216.14 -848.406 998.86 -697.499C890.176 -622.016 829.115 -504.636 774.568 -379.562C720.076 -254.612 672.071 -121.912 589.446 -16.5811C521.987 69.4169 434.232 134.255 348.48 200.271C262.669 266.332 178.839 333.589 118.793 424.525C-9.72368 619.159 -78.3156 844.402 -130.328 1073.32C-145.193 1138.75 -166.828 1207.19 -188.567 1276.43C-210.314 1345.69 -232.168 1415.77 -247.518 1484.58C-278.224 1622.22 -282.817 1754.42 -208.756 1864.46C-128.205 1984.14 10.7444 2016.38 160.541 2037.76C235.341 2048.44 312.872 2056.42 386.824 2071.31C460.806 2086.21 531.382 2108.05 592.393 2146.53C686.693 2206.01 746.067 2307.28 806.741 2405.17C867.51 2503.22 929.585 2597.88 1029.25 2645.2C1229.63 2740.33 1470.23 2720.03 1685.12 2665.71C1787.65 2639.79 1875.43 2582.4 1961.55 2519.65C2047.6 2456.95 2132.06 2388.86 2227.71 2341.94C2278.87 2316.85 2335.38 2300.49 2393.35 2287.12C2422.34 2280.44 2451.71 2274.49 2480.98 2268.58C2510.25 2262.67 2539.41 2256.79 2568 2250.22C2682.4 2223.94 2787.31 2186.75 2852.8 2093.22C2918.61 1999.21 2903.99 1880.84 2883.95 1758.72C2873.95 1697.75 2862.61 1635.88 2859.46 1575.93C2856.31 1515.95 2861.33 1457.77 2884.11 1404.15C2943.36 1264.72 3069.82 1164.95 3187.65 1063.02C3305.64 960.95 3415 856.699 3441.31 708.139C3489.88 433.962 3360.48 108.97 3144.45 -61.1357C3030.09 -151.19 2881.55 -148.938 2729.28 -141.822C2577.26 -134.718 2421.52 -122.755 2293.95 -194.351C2233.17 -228.464 2185.9 -279.403 2145.16 -338.085C2104.44 -396.752 2070.17 -463.257 2035.47 -528.518C1965.98 -659.2 1894.75 -784.776 1766.27 -834.625Z" stroke="url(#paint15_linear_161_3)" stroke-width="3"/>
<path d="M1807.99 -1251.88C1504.2 -1369.73 1126.67 -1268.94 857.62 -1082.09C722.981 -988.591 647.356 -843.203 579.827 -688.373C512.353 -533.667 452.947 -369.463 350.696 -239.122C267.217 -132.709 158.62 -52.4768 52.4492 29.252C-53.782 111.027 -157.608 194.315 -231.98 306.939C-391.118 547.927 -476.044 826.803 -540.438 1110.19C-558.837 1191.17 -585.616 1275.87 -612.529 1361.58C-639.451 1447.33 -666.509 1534.09 -685.516 1619.28C-723.536 1789.69 -729.248 1953.46 -637.478 2089.8C-537.66 2238.1 -365.486 2278.02 -180.049 2304.49C-87.4284 2317.71 8.52717 2327.59 100.065 2346.02C191.633 2364.45 278.956 2391.47 354.434 2439.08C471.091 2512.65 544.552 2637.94 619.681 2759.14C694.904 2880.49 771.801 2997.76 895.294 3056.39C1143.47 3174.21 1441.43 3149.05 1707.49 3081.81C1834.49 3049.71 1943.2 2978.62 2049.82 2900.94C2156.37 2823.31 2260.89 2739.05 2379.27 2681C2442.57 2649.95 2512.49 2629.71 2584.25 2613.16C2620.14 2604.88 2656.5 2597.53 2692.73 2590.21C2728.96 2582.89 2765.06 2575.61 2800.46 2567.48C2942.11 2534.95 3072.1 2488.89 3153.25 2372.98C3234.83 2256.48 3216.68 2109.8 3191.88 1958.65C3179.5 1883.17 3165.47 1806.61 3161.57 1732.42C3157.66 1658.21 3163.88 1586.25 3192.06 1519.94C3265.36 1347.43 3421.83 1223.99 3567.74 1097.79C3713.79 971.443 3849.28 842.319 3881.88 658.278C3942.04 318.746 3781.78 -83.6847 3514.24 -294.335C3372.54 -405.907 3188.52 -403.1 3000.04 -394.292C2811.8 -385.496 2619.11 -370.705 2461.29 -459.271C2386.11 -501.463 2327.63 -564.474 2277.22 -637.09C2226.81 -709.691 2184.41 -791.994 2141.44 -872.787C2055.43 -1034.53 1967.19 -1190.11 1807.99 -1251.88Z" stroke="url(#paint16_linear_161_3)" stroke-width="3"/>
</g>
<defs>
<filter id="filter0_f_161_3" x="-1133.08" y="199.277" width="3613.72" height="2931.28" filterUnits="userSpaceOnUse" color-interpolation-filters="sRGB">
<feFlood flood-opacity="0" result="BackgroundImageFix"/>
<feBlend mode="normal" in="SourceGraphic" in2="BackgroundImageFix" result="shape"/>
<feGaussianBlur stdDeviation="350" result="effect1_foregroundBlur_161_3"/>
</filter>
<filter id="filter1_f_161_3" x="864.905" y="-12.998" width="5488.69" height="3131.73" filterUnits="userSpaceOnUse" color-interpolation-filters="sRGB">
<feFlood flood-opacity="0" result="BackgroundImageFix"/>
<feBlend mode="normal" in="SourceGraphic" in2="BackgroundImageFix" result="shape"/>
<feGaussianBlur stdDeviation="350" result="effect1_foregroundBlur_161_3"/>
</filter>
<filter id="filter2_f_161_3" x="642.734" y="789.816" width="2542.88" height="2524.57" filterUnits="userSpaceOnUse" color-interpolation-filters="sRGB">
<feFlood flood-opacity="0" result="BackgroundImageFix"/>
<feBlend mode="normal" in="SourceGraphic" in2="BackgroundImageFix" result="shape"/>
<feGaussianBlur stdDeviation="300" result="effect1_foregroundBlur_161_3"/>
</filter>
<filter id="filter3_f_161_3" x="-283.762" y="-2097.74" width="4027.63" height="4271.79" filterUnits="userSpaceOnUse" color-interpolation-filters="sRGB">
<feFlood flood-opacity="0" result="BackgroundImageFix"/>
<feBlend mode="normal" in="SourceGraphic" in2="BackgroundImageFix" result="shape"/>
<feGaussianBlur stdDeviation="450" result="effect1_foregroundBlur_161_3"/>
</filter>
<filter id="filter4_f_161_3" x="-99.0918" y="56.6675" width="2186.82" height="2114.18" filterUnits="userSpaceOnUse" color-interpolation-filters="sRGB">
<feFlood flood-opacity="0" result="BackgroundImageFix"/>
<feBlend mode="normal" in="SourceGraphic" in2="BackgroundImageFix" result="shape"/>
<feGaussianBlur stdDeviation="150" result="effect1_foregroundBlur_161_3"/>
</filter>
<filter id="filter5_f_161_3" x="-152.123" y="59.4736" width="2235.26" height="1841.58" filterUnits="userSpaceOnUse" color-interpolation-filters="sRGB">
<feFlood flood-opacity="0" result="BackgroundImageFix"/>
<feBlend mode="normal" in="SourceGraphic" in2="BackgroundImageFix" result="shape"/>
<feGaussianBlur stdDeviation="150" result="effect1_foregroundBlur_161_3"/>
</filter>
<filter id="filter6_f_161_3" x="335.123" y="235.37" width="1374.97" height="1261.41" filterUnits="userSpaceOnUse" color-interpolation-filters="sRGB">
<feFlood flood-opacity="0" result="BackgroundImageFix"/>
<feBlend mode="normal" in="SourceGraphic" in2="BackgroundImageFix" result="shape"/>
<feGaussianBlur stdDeviation="100" result="effect1_foregroundBlur_161_3"/>
</filter>
<filter id="filter7_f_161_3" x="1257.42" y="-354.776" width="1145" height="722.302" filterUnits="userSpaceOnUse" color-interpolation-filters="sRGB">
<feFlood flood-opacity="0" result="BackgroundImageFix"/>
<feBlend mode="normal" in="SourceGraphic" in2="BackgroundImageFix" result="shape"/>
<feGaussianBlur stdDeviation="50" result="effect1_foregroundBlur_161_3"/>
</filter>
<filter id="filter8_f_161_3" x="4436.06" y="-1158.21" width="2463.38" height="2400.2" filterUnits="userSpaceOnUse" color-interpolation-filters="sRGB">
<feFlood flood-opacity="0" result="BackgroundImageFix"/>
<feBlend mode="normal" in="SourceGraphic" in2="BackgroundImageFix" result="shape"/>
<feGaussianBlur stdDeviation="450" result="effect1_foregroundBlur_161_3"/>
</filter>
<filter id="filter9_f_161_3" x="1680.14" y="1614.64" width="838.699" height="521.416" filterUnits="userSpaceOnUse" color-interpolation-filters="sRGB">
<feFlood flood-opacity="0" result="BackgroundImageFix"/>
<feBlend mode="normal" in="SourceGraphic" in2="BackgroundImageFix" result="shape"/>
<feGaussianBlur stdDeviation="50" result="effect1_foregroundBlur_161_3"/>
</filter>
<filter id="filter10_f_161_3" x="3287.66" y="-407.211" width="5648.76" height="4256.56" filterUnits="userSpaceOnUse" color-interpolation-filters="sRGB">
<feFlood flood-opacity="0" result="BackgroundImageFix"/>
<feBlend mode="normal" in="SourceGraphic" in2="BackgroundImageFix" result="shape"/>
<feGaussianBlur stdDeviation="350" result="effect1_foregroundBlur_161_3"/>
</filter>
<filter id="filter11_f_161_3" x="953.511" y="-1822.85" width="6260.31" height="4033.9" filterUnits="userSpaceOnUse" color-interpolation-filters="sRGB">
<feFlood flood-opacity="0" result="BackgroundImageFix"/>
<feBlend mode="normal" in="SourceGraphic" in2="BackgroundImageFix" result="shape"/>
<feGaussianBlur stdDeviation="450" result="effect1_foregroundBlur_161_3"/>
</filter>
<linearGradient id="paint0_linear_161_3" x1="66.6158" y1="791.123" x2="1529.16" y2="2158" gradientUnits="userSpaceOnUse">
<stop stop-color="#56DFD1"/>
<stop offset="1" stop-color="#1EBFE7"/>
</linearGradient>
<linearGradient id="paint1_linear_161_3" x1="515.215" y1="-816.5" x2="1563.21" y2="427" gradientUnits="userSpaceOnUse">
<stop stop-color="#4371FA" stop-opacity="0"/>
<stop offset="1" stop-color="#2265DE"/>
</linearGradient>
<linearGradient id="paint2_linear_161_3" x1="780.448" y1="1134.66" x2="1166.29" y2="689.311" gradientUnits="userSpaceOnUse">
<stop stop-color="#DEFEFE"/>
<stop offset="0.522986" stop-color="#07C2C2"/>
<stop offset="1" stop-color="#057777"/>
</linearGradient>
<linearGradient id="paint3_linear_161_3" x1="5880.74" y1="61.9928" x2="5514.68" y2="372.227" gradientUnits="userSpaceOnUse">
<stop stop-color="#2D1ED9"/>
<stop offset="1" stop-color="#1D129D"/>
</linearGradient>
<linearGradient id="paint4_linear_161_3" x1="4986.6" y1="83.1809" x2="7666.88" y2="2637.21" gradientUnits="userSpaceOnUse">
<stop stop-color="#56DFD1"/>
<stop offset="1" stop-color="#1EBFE7"/>
</linearGradient>
<linearGradient id="paint5_linear_161_3" x1="1591.5" y1="761" x2="1591.5" y2="1075" gradientUnits="userSpaceOnUse">
<stop offset="0.197115" stop-color="white"/>
<stop offset="0.490385" stop-color="#658CA1"/>
<stop offset="0.817308" stop-color="white"/>
</linearGradient>
<linearGradient id="paint6_linear_161_3" x1="1591.5" y1="684" x2="1591.5" y2="1151" gradientUnits="userSpaceOnUse">
<stop offset="0.197115" stop-color="white"/>
<stop offset="0.490385" stop-color="#658CA1"/>
<stop offset="0.817308" stop-color="white"/>
</linearGradient>
<linearGradient id="paint7_linear_161_3" x1="1591.5" y1="596" x2="1591.5" y2="1240" gradientUnits="userSpaceOnUse">
<stop offset="0.197115" stop-color="white"/>
<stop offset="0.490385" stop-color="#658CA1"/>
<stop offset="0.817308" stop-color="white"/>
</linearGradient>
<linearGradient id="paint8_linear_161_3" x1="1591" y1="494" x2="1591" y2="1341" gradientUnits="userSpaceOnUse">
<stop offset="0.197115" stop-color="white"/>
<stop offset="0.490385" stop-color="#658CA1"/>
<stop offset="0.817308" stop-color="white"/>
</linearGradient>
<linearGradient id="paint9_linear_161_3" x1="1591" y1="363" x2="1591" y2="1472" gradientUnits="userSpaceOnUse">
<stop offset="0.197115" stop-color="white"/>
<stop offset="0.490385" stop-color="#658CA1"/>
<stop offset="0.817308" stop-color="white"/>
</linearGradient>
<linearGradient id="paint10_linear_161_3" x1="1591.5" y1="215" x2="1591.5" y2="1621" gradientUnits="userSpaceOnUse">
<stop offset="0.197115" stop-color="white"/>
<stop offset="0.490385" stop-color="#658CA1"/>
<stop offset="0.817308" stop-color="white"/>
</linearGradient>
<linearGradient id="paint11_linear_161_3" x1="1591.5" y1="83" x2="1591.5" y2="1753" gradientUnits="userSpaceOnUse">
<stop offset="0.197115" stop-color="white"/>
<stop offset="0.490385" stop-color="#658CA1"/>
<stop offset="0.817308" stop-color="white"/>
</linearGradient>
<linearGradient id="paint12_linear_161_3" x1="1591.5" y1="-66" x2="1591.5" y2="1902" gradientUnits="userSpaceOnUse">
<stop offset="0.197115" stop-color="white"/>
<stop offset="0.490385" stop-color="#658CA1"/>
<stop offset="0.817308" stop-color="white"/>
</linearGradient>
<linearGradient id="paint13_linear_161_3" x1="1591" y1="-340" x2="1591" y2="2175" gradientUnits="userSpaceOnUse">
<stop offset="0.197115" stop-color="white"/>
<stop offset="0.490385" stop-color="#658CA1"/>
<stop offset="0.817308" stop-color="white"/>
</linearGradient>
<linearGradient id="paint14_linear_161_3" x1="1591.5" y1="-530" x2="1591.5" y2="2366" gradientUnits="userSpaceOnUse">
<stop offset="0.197115" stop-color="white"/>
<stop offset="0.490385" stop-color="#658CA1"/>
<stop offset="0.817308" stop-color="white"/>
</linearGradient>
<linearGradient id="paint15_linear_161_3" x1="1591.5" y1="-877" x2="1591.5" y2="2713" gradientUnits="userSpaceOnUse">
<stop offset="0.197115" stop-color="white"/>
<stop offset="0.490385" stop-color="#658CA1"/>
<stop offset="0.817308" stop-color="white"/>
</linearGradient>
<linearGradient id="paint16_linear_161_3" x1="1591.5" y1="-1304" x2="1591.5" y2="3140" gradientUnits="userSpaceOnUse">
<stop offset="0.197115" stop-color="white"/>
<stop offset="0.490385" stop-color="#658CA1"/>
<stop offset="0.817308" stop-color="white"/>
</linearGradient>
<clipPath id="clip0_161_3">
<rect width="7242" height="1836" fill="white"/>
</clipPath>
</defs>
</svg>
